<svg width="50" height="50" viewBox="0 0 50 50" fill="none" xmlns="http://www.w3.org/2000/svg">
<path d="M25 50C38.8071 50 50 38.8071 50 25C50 11.1929 38.8071 0 25 0C11.1929 0 0 11.1929 0 25C0 38.8071 11.1929 50 25 50Z" fill="#C4C4C4"/>
<path d="M32.2836 30.192C32.5716 30.624 32.7156 31.032 32.7156 31.416C32.7156 31.928 32.4996 32.36 32.0676 32.712C31.6516 33.048 31.1636 33.216 30.6036 33.216C30.2196 33.216 29.8596 33.128 29.5236 32.952C29.1876 32.776 28.8996 32.512 28.6596 32.16L25.5396 27.6C25.3156 27.28 25.0756 27.048 24.8196 26.904C24.5796 26.744 24.2916 26.664 23.9556 26.664H22.3956V30.96C22.3956 31.632 22.2036 32.168 21.8196 32.568C21.4356 32.952 20.9076 33.144 20.2356 33.144C19.5636 33.144 19.0276 32.952 18.6276 32.568C18.2436 32.168 18.0516 31.632 18.0516 30.96V18.12C18.0516 17.464 18.2276 16.96 18.5796 16.608C18.9316 16.256 19.4356 16.08 20.0916 16.08H26.1156C28.1636 16.08 29.6996 16.528 30.7236 17.424C31.7636 18.304 32.2836 19.584 32.2836 21.264C32.2836 22.544 31.9316 23.632 31.2276 24.528C30.5236 25.408 29.5316 26 28.2516 26.304C28.7796 26.384 29.2356 26.56 29.6196 26.832C30.0196 27.104 30.4116 27.512 30.7956 28.056L32.2836 30.192ZM25.4196 23.352C26.3956 23.352 27.0916 23.2 27.5076 22.896C27.9396 22.592 28.1556 22.096 28.1556 21.408C28.1556 20.704 27.9396 20.2 27.5076 19.896C27.0916 19.576 26.3956 19.416 25.4196 19.416H22.3476V23.352H25.4196Z" fill="black"/>
</svg>
